<?xml version="1.0" encoding="utf-8"?>
<!-- Generator: Adobe Illustrator 24.1.1, SVG Export Plug-In . SVG Version: 6.00 Build 0)  -->
<svg version="1.1" id="Layer_1" xmlns="http://www.w3.org/2000/svg" xmlns:xlink="http://www.w3.org/1999/xlink" x="0px" y="0px"
	 viewBox="0 0 512 512" style="enable-background:new 0 0 512 512;" xml:space="preserve">
<g>
	<style>
		path {
			fill: black;
		}
		@media (prefers-color-scheme: dark) {
			path { fill: white; }
		}
	</style>
	<path d="M102.8,368.5c-14.6,0-27.8-11.9-27.8-26.4c0-14.5,11.9-26.5,27.8-26.5c16,0,28,11.9,28,26.5c0,14.5-13.3,26.4-27.9,26.4
		H102.8z M444.5,224.2c-2.9-21.2-16-38.4-33.3-51.6l-6.7-5.3l-5.4,6.6c-10.5,11.9-14.7,33.1-13.4,48.9c1.3,12,5.1,23.9,11.8,33.2
		c-5.5,2.8-12.2,5.3-17.3,8.1c-12.2,4-24,5.3-35.8,5.3H2.1l-1.3,7.8c-2.5,25.3,1.3,51.7,12,75.6l5.3,9.3v1.2
		c32,53,88.9,76.9,151,76.9c119.4,0,217.2-51.6,263.6-162.9c30.4,1.3,61.1-6.6,75.5-35.8l3.8-6.6l-6.3-4c-17.3-10.6-41-12-60.8-6.7
		l-0.4,0.1L444.5,224.2z M273.6,203h-51.8v51.7h51.8V203z M273.6,138.1h-51.8v51.7h51.8V138.1z M273.6,71.8h-51.8v51.7h51.8V71.8z
		 M337,203h-51.5v51.7h51.7V203H337z M145,203H93.5v51.7h51.7V203H145z M209.6,203h-51.2v51.7H210V203H209.6z M81,203H29.8v51.7
		h51.9V203H81z M209.6,138.1h-51.2v51.7H210v-51.6L209.6,138.1z M144.7,138.1H93.6v51.7h51.5v-51.6L144.7,138.1L144.7,138.1z"/>
</g>
</svg>
